<svg width="114" height="30" viewBox="0 0 114 30" fill="none" xmlns="http://www.w3.org/2000/svg">
<path d="M32.3403 29C31.4603 29 30.7803 28.7733 30.3003 28.32C29.847 27.84 29.6203 27.16 29.6203 26.28V3.52C29.6203 2.64 29.847 1.97333 30.3003 1.52C30.7803 1.04 31.4603 0.799998 32.3403 0.799998H40.1003C44.8203 0.799998 48.4603 2.01333 51.0203 4.44C53.607 6.86667 54.9003 10.3467 54.9003 14.88C54.9003 17.1467 54.567 19.16 53.9003 20.92C53.2603 22.6533 52.3003 24.12 51.0203 25.32C49.767 26.52 48.2203 27.44 46.3803 28.08C44.567 28.6933 42.4736 29 40.1003 29H32.3403ZM34.7403 24.76H39.7803C41.4336 24.76 42.8603 24.56 44.0603 24.16C45.287 23.7333 46.3003 23.12 47.1003 22.32C47.927 21.4933 48.5403 20.4667 48.9403 19.24C49.3403 17.9867 49.5403 16.5333 49.5403 14.88C49.5403 11.5733 48.727 9.10667 47.1003 7.48C45.4736 5.85333 43.0336 5.04 39.7803 5.04H34.7403V24.76ZM62.089 29.28C61.289 29.28 60.6757 29.04 60.249 28.56C59.8224 28.08 59.609 27.4133 59.609 26.56V11.88C59.609 11 59.8224 10.3333 60.249 9.88C60.6757 9.4 61.289 9.16 62.089 9.16C62.889 9.16 63.5024 9.4 63.929 9.88C64.3824 10.3333 64.609 11 64.609 11.88V26.56C64.609 27.4133 64.3957 28.08 63.969 28.56C63.5424 29.04 62.9157 29.28 62.089 29.28ZM62.089 5.44C61.1557 5.44 60.4224 5.21333 59.889 4.76C59.3824 4.28 59.129 3.62667 59.129 2.8C59.129 1.94667 59.3824 1.29333 59.889 0.839998C60.4224 0.386666 61.1557 0.159999 62.089 0.159999C63.049 0.159999 63.7824 0.386666 64.289 0.839998C64.7957 1.29333 65.049 1.94667 65.049 2.8C65.049 3.62667 64.7957 4.28 64.289 4.76C63.7824 5.21333 63.049 5.44 62.089 5.44ZM71.1643 29.2C70.5777 29.2 70.0843 29.04 69.6843 28.72C69.311 28.3733 69.111 27.9333 69.0843 27.4C69.0843 26.8667 69.311 26.3067 69.7643 25.72L76.2443 17.72V20.08L70.1643 12.6C69.6843 12.0133 69.4577 11.4533 69.4843 10.92C69.511 10.3867 69.711 9.96 70.0843 9.64C70.4843 9.29333 70.9777 9.12 71.5643 9.12C72.1777 9.12 72.6843 9.22667 73.0843 9.44C73.511 9.65333 73.8977 9.98667 74.2443 10.44L79.0443 16.6H77.2843L82.1243 10.44C82.4977 9.98667 82.8843 9.65333 83.2843 9.44C83.6843 9.22667 84.1777 9.12 84.7643 9.12C85.3777 9.12 85.871 9.29333 86.2443 9.64C86.6177 9.98667 86.8043 10.4267 86.8043 10.96C86.831 11.4933 86.6043 12.0533 86.1243 12.64L80.0843 20.04V17.8L86.5643 25.72C87.0443 26.28 87.271 26.8267 87.2443 27.36C87.2177 27.8933 87.0043 28.3333 86.6043 28.68C86.231 29.0267 85.7377 29.2 85.1243 29.2C84.5377 29.2 84.0443 29.0933 83.6443 28.88C83.2443 28.6667 82.8577 28.3333 82.4843 27.88L77.2843 21.32H78.9643L73.8043 27.88C73.4577 28.3067 73.0843 28.64 72.6843 28.88C72.2843 29.0933 71.7777 29.2 71.1643 29.2ZM100.052 29.4C98.0258 29.4 96.2658 28.9867 94.7725 28.16C93.2791 27.3333 92.1191 26.16 91.2925 24.64C90.4658 23.0933 90.0525 21.28 90.0525 19.2C90.0525 17.6267 90.2791 16.2267 90.7325 15C91.2125 13.7467 91.8925 12.68 92.7725 11.8C93.6525 10.8933 94.7058 10.2133 95.9325 9.76C97.1591 9.28 98.5325 9.04 100.052 9.04C102.079 9.04 103.839 9.45333 105.332 10.28C106.826 11.1067 107.986 12.28 108.812 13.8C109.639 15.32 110.052 17.12 110.052 19.2C110.052 20.7733 109.812 22.1867 109.332 23.44C108.879 24.6933 108.212 25.7733 107.332 26.68C106.452 27.56 105.399 28.24 104.172 28.72C102.946 29.1733 101.572 29.4 100.052 29.4ZM100.052 25.6C101.039 25.6 101.906 25.36 102.652 24.88C103.399 24.4 103.972 23.6933 104.372 22.76C104.799 21.8 105.012 20.6133 105.012 19.2C105.012 17.0667 104.559 15.48 103.652 14.44C102.746 13.3733 101.546 12.84 100.052 12.84C99.0658 12.84 98.1991 13.08 97.4525 13.56C96.7058 14.0133 96.1191 14.72 95.6925 15.68C95.2925 16.6133 95.0925 17.7867 95.0925 19.2C95.0925 21.3067 95.5458 22.9067 96.4525 24C97.3591 25.0667 98.5591 25.6 100.052 25.6Z" fill="#CCFF00"/>
<path d="M23.1895 16.4596L5.79763 27.25L5.79763 5.66927L23.1895 16.4596Z" fill="#1954ED"/>
<g filter="url(#filter0_i_2738_74)">
<path d="M18.0813 16.4596L0.513795 5.71859L0.513796 27.2007L18.0813 16.4596Z" fill="#CCFF00"/>
</g>
<defs>
<filter id="filter0_i_2738_74" x="0.513916" y="5.71875" width="17.5674" height="25.4819" filterUnits="userSpaceOnUse" color-interpolation-filters="sRGB">
<feFlood flood-opacity="0" result="BackgroundImageFix"/>
<feBlend mode="normal" in="SourceGraphic" in2="BackgroundImageFix" result="shape"/>
<feColorMatrix in="SourceAlpha" type="matrix" values="0 0 0 0 0 0 0 0 0 0 0 0 0 0 0 0 0 0 127 0" result="hardAlpha"/>
<feOffset dy="4"/>
<feGaussianBlur stdDeviation="2"/>
<feComposite in2="hardAlpha" operator="arithmetic" k2="-1" k3="1"/>
<feColorMatrix type="matrix" values="0 0 0 0 0 0 0 0 0 0 0 0 0 0 0 0 0 0 0.25 0"/>
<feBlend mode="normal" in2="shape" result="effect1_innerShadow_2738_74"/>
</filter>
</defs>
</svg>
